<?xml version="1.0" encoding="utf-8"?>
<!-- Generator: Adobe Illustrator 22.1.0, SVG Export Plug-In . SVG Version: 6.00 Build 0)  -->
<svg version="1.1" id="Слой_1" xmlns="http://www.w3.org/2000/svg" xmlns:xlink="http://www.w3.org/1999/xlink" x="0px" y="0px"
	 viewBox="0 0 320 480" style="enable-background:new 0 0 320 480;" xml:space="preserve">
<style type="text/css">
	.st0{clip-path:url(#SVGID_4_);}
	.st1{fill:none;stroke:#1698D9;stroke-width:8;stroke-miterlimit:50;}
	.st2{fill:none;stroke:#000000;stroke-width:0.3;}
</style>
<g id="Слой_1">
	<g>
		<g>
			<g>
				<g>
					<g>
						<defs>
							<path id="SVGID_1_" d="M308,0c6.6,0,12,5.4,12,12v456c0,6.6-5.4,12-12,12H12c-6.6,0-12-5.4-12-12V42.7L42.7,0H308z"/>
						</defs>
						<clipPath id="SVGID_2_">
							<use xlink:href="#SVGID_1_"  style="overflow:visible;"/>
						</clipPath>
					</g>
				</g>
			</g>
		</g>
	</g>
	<g>
		<g>
			<g>
				<g>
					<g>
						<defs>
							<path id="SVGID_3_" d="M308,0c6.6,0,12,5.4,12,12v456c0,6.6-5.4,12-12,12H12c-6.6,0-12-5.4-12-12V42.7L42.7,0H308z"/>
						</defs>
						<clipPath id="SVGID_4_">
							<use xlink:href="#SVGID_3_"  style="overflow:visible;"/>
						</clipPath>
						<g class="st0">
							<g>
								<g>
									<path class="st1" d="M308,0c6.6,0,12,5.4,12,12v456c0,6.6-5.4,12-12,12H12c-6.6,0-12-5.4-12-12V42.7L42.7,0H308z"/>
								</g>
							</g>
							<line class="st2" x1="-4" y1="-58" x2="-4" y2="-22"/>
							<line class="st2" x1="-58" y1="-4" x2="-22" y2="-4"/>
							<line class="st2" x1="-58" y1="484" x2="-22" y2="484"/>
							<line class="st2" x1="-4" y1="538" x2="-4" y2="502"/>
							<line class="st2" x1="324" y1="-58" x2="324" y2="-22"/>
							<line class="st2" x1="378" y1="-4" x2="342" y2="-4"/>
							<line class="st2" x1="378" y1="484" x2="342" y2="484"/>
							<line class="st2" x1="324" y1="538" x2="324" y2="502"/>
						</g>
					</g>
				</g>
			</g>
		</g>
	</g>
	<g>
		<g>
			<g>
				<g>
					<g>
						<defs>
							<path id="SVGID_5_" d="M308,0c6.6,0,12,5.4,12,12v456c0,6.6-5.4,12-12,12H12c-6.6,0-12-5.4-12-12V42.7L42.7,0H308z"/>
						</defs>
						<clipPath id="SVGID_6_">
							<use xlink:href="#SVGID_5_"  style="overflow:visible;"/>
						</clipPath>
					</g>
				</g>
			</g>
		</g>
	</g>
</g>
</svg>
